<svg width="150" height="150" viewBox="0 0 150 150" fill="none" xmlns="http://www.w3.org/2000/svg">
<path fill-rule="evenodd" clip-rule="evenodd" d="M123.268 82.1062L122.634 85.9683C123.033 84.9606 123.268 83.6955 123.268 82.1062Z" fill="black"/>
<path fill-rule="evenodd" clip-rule="evenodd" d="M74.9675 7.21875C37.5988 7.21875 7.18164 37.65 7.18164 75.0093C7.18164 112.364 37.6129 142.795 74.9675 142.795C112.327 142.795 142.758 112.364 142.758 75.0093C142.758 37.65 112.327 7.21875 74.9675 7.21875ZM122.634 85.9683C123.033 84.9606 123.268 83.6955 123.268 82.1062V79.5234C123.268 78.9797 123.497 78.6046 124.06 78.6046H129.694C129.933 75.4359 129.891 72.2484 129.577 69.0843L119.452 64.5937C117.418 63.6797 116.485 61.2703 117.389 59.2172L122.653 47.3437C114.671 33.3469 100.918 23.55 85.0785 20.5828L77.391 27.9141C75.7738 29.475 73.205 29.4047 71.6582 27.7828L64.7863 20.5828C52.9269 22.8234 42.1316 28.9172 34.0832 37.9078H93.5V54.8859H62.5363L62.5222 65.2265H93.5V80.0718H76.7207H62.5363L62.5222 90.1218L62.5363 95.5L62.5222 101L63.3707 106.542C62.9465 106.821 62.8597 106.96 62.8164 107.03C62.8039 107.05 62.795 107.065 62.7828 107.075C62.7523 107.1 62.701 107.1 62.5222 107.1H30.7973C32.2598 109.078 33.8488 110.958 35.5598 112.725L44.7801 110.742C46.9738 110.273 49.1254 111.675 49.5988 113.869L51.8394 124.312C66.3238 131.039 83.0488 131.119 97.5988 124.528L99.8347 114.084C100.308 111.891 102.474 110.484 104.668 110.958L114.089 112.983C115.918 111.145 117.614 109.181 119.166 107.1L122.634 85.9683ZM37.8707 54.5156H30.0988L32.0769 58.9734C32.9957 61.0265 32.0629 63.4218 30.0098 64.3359L20.4004 68.6109C19.641 75.6422 20.241 82.7578 22.1816 89.564H37.8707V54.5156ZM74.8691 13.2422C77.2644 13.3031 79.2004 15.3 79.2004 17.7C79.2004 20.1469 77.1847 22.1625 74.7379 22.1625C72.291 22.1625 70.28 20.1469 70.28 17.7C70.28 15.2531 72.291 13.2375 74.7379 13.2375C74.7619 13.2375 74.7847 13.2387 74.807 13.2399C74.828 13.2411 74.8486 13.2422 74.8691 13.2422ZM21.6941 53.5969C24.0894 53.6672 26.0254 55.6594 26.0254 58.0547C26.0254 60.5015 24.0098 62.5172 21.5629 62.5172C19.116 62.5172 17.1051 60.5015 17.1051 58.0547C17.1051 55.6078 19.116 53.5969 21.5629 53.5969H21.6941ZM128.03 53.7984C130.425 53.8687 132.361 55.8609 132.361 58.2562C132.361 60.7031 130.346 62.7187 127.899 62.7187C125.452 62.7187 123.441 60.7031 123.441 58.2562C123.441 55.8094 125.452 53.7937 127.899 53.7937C127.946 53.7937 127.988 53.7937 128.03 53.7984ZM41.841 116.395C44.241 116.466 46.1722 118.458 46.1722 120.853C46.1722 123.3 44.1613 125.316 41.7144 125.316C39.2676 125.316 37.2519 123.3 37.2519 120.853C37.2519 118.406 39.2676 116.391 41.7144 116.391C41.7246 116.391 41.7348 116.391 41.7449 116.391C41.7559 116.392 41.7668 116.392 41.7777 116.393C41.7988 116.394 41.8199 116.395 41.841 116.395ZM107.883 116.597C110.278 116.667 112.214 118.655 112.21 121.055C112.21 123.502 110.199 125.517 107.752 125.517C105.305 125.517 103.294 123.502 103.294 121.055C103.294 118.608 105.305 116.592 107.752 116.592C107.779 116.592 107.806 116.592 107.834 116.593C107.85 116.594 107.866 116.595 107.883 116.597Z" fill="black"/>
<path fill-rule="evenodd" clip-rule="evenodd" d="M138.971 75.0094C138.971 110.119 110.082 139.008 74.9676 139.008C39.8582 139.008 10.9645 110.119 10.9645 75.0094C10.9645 39.8953 39.8582 11.0063 74.9676 11.0063C110.082 11.0063 138.971 39.8953 138.971 75.0094ZM137.766 68.8266L147.75 75.0094L137.766 81.1875L146.344 89.2032L135.357 93.3188L142.214 102.858L130.613 104.752L135.488 115.448L123.741 115.031L126.436 126.478L114.994 123.778L115.411 135.525L104.71 130.65L102.821 142.252L93.2817 135.398L89.166 146.381L81.1504 137.808L74.9676 147.788L68.7895 137.808L60.7738 146.381L56.6582 135.398L47.1191 142.252L45.2254 130.65L34.5285 135.525L34.9457 123.778L23.4988 126.478L26.1941 115.031L14.452 115.448L19.327 104.752L7.72539 102.858L14.5785 93.3188L3.5957 89.2032L12.1691 81.1875L2.18945 75.0094L12.1691 68.8266L3.5957 60.811L14.5785 56.6953L7.72539 47.1563L19.327 45.2625L14.452 34.5656L26.1941 34.9828L23.4988 23.5406L34.9457 26.2359L34.5285 14.4891L45.2254 19.3641L47.1191 7.7625L56.6582 14.6203L60.7738 3.63281L68.7895 12.2109L74.9676 2.22656L81.1504 12.2109L89.166 3.63281L93.2817 14.6203L102.821 7.7625L104.71 19.3641L115.411 14.4891L114.994 26.2359L126.436 23.5406L123.741 34.9828L135.488 34.5656L130.613 45.2625L142.214 47.1563L135.357 56.6953L146.344 60.811L137.766 68.8266Z" fill="black"/>
</svg>
