<svg width="300" height="300" viewBox="0 0 300 300" fill="none" xmlns="http://www.w3.org/2000/svg">
<path fill-rule="evenodd" clip-rule="evenodd" d="M246.534 164.212L245.266 171.936C246.066 169.921 246.534 167.391 246.534 164.212Z" fill="black"/>
<path fill-rule="evenodd" clip-rule="evenodd" d="M149.934 14.4375C75.1966 14.4375 14.3623 75.3 14.3623 150.019C14.3623 224.728 75.2248 285.59 149.934 285.59C224.653 285.59 285.515 224.728 285.515 150.019C285.515 75.3 224.653 14.4375 149.934 14.4375ZM245.266 171.936C246.066 169.921 246.534 167.391 246.534 164.212V159.047C246.534 157.959 246.993 157.209 248.118 157.209H259.387C259.865 150.872 259.781 144.497 259.153 138.169L238.903 129.187C234.834 127.359 232.968 122.541 234.778 118.434L245.306 94.6874C229.34 66.6937 201.834 47.1 170.156 41.1656L154.781 55.8281C151.547 58.95 146.409 58.8093 143.315 55.5656L129.572 41.1656C105.853 45.6468 84.2623 57.8343 68.1654 75.8156H186.999V109.772H125.072L125.043 130.453H186.999V160.144H153.44H125.072L125.043 180.244L125.072 191L125.043 202L126.74 213.084C125.892 213.642 125.718 213.921 125.632 214.06C125.607 214.1 125.589 214.129 125.565 214.149C125.504 214.2 125.401 214.2 125.043 214.2H61.5935C64.5185 218.156 67.6966 221.915 71.1185 225.45L89.5591 221.484C93.9466 220.547 98.2497 223.35 99.1966 227.737L103.678 248.625C132.647 262.078 166.097 262.237 195.197 249.056L199.668 228.169C200.615 223.781 204.947 220.969 209.334 221.915L228.178 225.965C231.834 222.29 235.228 218.362 238.331 214.2L245.266 171.936ZM75.7404 109.031H60.1966L64.1529 117.947C65.9904 122.053 64.1248 126.844 60.0185 128.672L40.7998 137.222C39.281 151.284 40.481 165.516 44.3623 179.128H75.7404V109.031ZM149.737 26.4844C154.528 26.6062 158.4 30.6 158.4 35.4C158.4 40.2937 154.368 44.325 149.475 44.325C144.581 44.325 140.559 40.2937 140.559 35.4C140.559 30.5062 144.581 26.475 149.475 26.475C149.523 26.475 149.568 26.4775 149.613 26.4799C149.655 26.4821 149.696 26.4844 149.737 26.4844ZM43.3873 107.194C48.1779 107.334 52.0498 111.319 52.0498 116.109C52.0498 121.003 48.0185 125.034 43.1248 125.034C38.231 125.034 34.2092 121.003 34.2092 116.109C34.2092 111.216 38.231 107.194 43.1248 107.194H43.3873ZM256.059 107.597C260.85 107.737 264.721 111.722 264.721 116.512C264.721 121.406 260.69 125.437 255.796 125.437C250.903 125.437 246.881 121.406 246.881 116.512C246.881 111.619 250.903 107.587 255.796 107.587C255.89 107.587 255.975 107.587 256.059 107.597ZM83.681 232.79C88.481 232.931 92.3435 236.915 92.3435 241.706C92.3435 246.6 88.3216 250.631 83.4279 250.631C78.5341 250.631 74.5029 246.6 74.5029 241.706C74.5029 236.812 78.5341 232.781 83.4279 232.781C83.4482 232.781 83.4685 232.782 83.4888 232.782C83.5107 232.783 83.5326 232.785 83.5544 232.786C83.5966 232.788 83.6388 232.79 83.681 232.79ZM215.765 233.194C220.556 233.334 224.428 237.309 224.418 242.109C224.418 247.003 220.397 251.034 215.503 251.034C210.609 251.034 206.587 247.003 206.587 242.109C206.587 237.215 210.609 233.184 215.503 233.184C215.557 233.184 215.611 233.184 215.668 233.187C215.699 233.188 215.732 233.19 215.765 233.194Z" fill="black"/>
<path fill-rule="evenodd" clip-rule="evenodd" d="M277.941 150.019C277.941 220.238 220.162 278.016 149.934 278.016C79.7155 278.016 21.9279 220.238 21.9279 150.019C21.9279 79.7907 79.7155 22.0125 149.934 22.0125C220.162 22.0125 277.941 79.7907 277.941 150.019ZM275.531 137.653L295.5 150.019L275.531 162.375L292.687 178.406L270.712 186.638L284.428 205.716L261.225 209.503L270.975 230.897L247.481 230.063L252.872 252.956L229.987 247.556L230.822 271.05L209.419 261.3L205.641 284.503L186.562 270.797L178.331 292.763L162.3 275.616L149.934 295.575L137.578 275.616L121.547 292.763L113.316 270.797L94.2374 284.503L90.4499 261.3L69.0561 271.05L69.8905 247.556L46.9967 252.956L52.3873 230.063L28.9029 230.897L38.653 209.503L15.4498 205.716L29.1561 186.638L7.19043 178.406L24.3373 162.375L4.37793 150.019L24.3373 137.653L7.19043 121.622L29.1561 113.391L15.4498 94.3126L38.653 90.5251L28.9029 69.1313L52.3873 69.9657L46.9967 47.0813L69.8905 52.4719L69.0561 28.9781L90.4499 38.7282L94.2374 15.525L113.316 29.2406L121.547 7.26563L137.578 24.4219L149.934 4.45312L162.3 24.4219L178.331 7.26563L186.562 29.2406L205.641 15.525L209.419 38.7282L230.822 28.9781L229.987 52.4719L252.872 47.0813L247.481 69.9657L270.975 69.1313L261.225 90.5251L284.428 94.3126L270.712 113.391L292.687 121.622L275.531 137.653Z" fill="black"/>
</svg>
